Coordinates
version=1
nRows=10
nColumns=40
inDegrees=yes

Units are S.I. units (second, meters, Newtons, ...)
If the header above contains a line with 'inDegrees', this indicates whether rotational values are in degrees (yes) or radians (no).

endheader
time	pelvis_tilt	pelvis_list	pelvis_rotation	pelvis_tx	pelvis_ty	pelvis_tz	hip_flexion_r	hip_adduction_r	hip_rotation_r	knee_angle_r	knee_angle_r_beta	ankle_angle_r	subtalar_angle_r	mtp_angle_r	hip_flexion_l	hip_adduction_l	hip_rotation_l	knee_angle_l	knee_angle_l_beta	ankle_angle_l	subtalar_angle_l	mtp_angle_l	lumbar_extension	lumbar_bending	lumbar_rotation	arm_flex_r	arm_add_r	arm_rot_r	elbow_flex_r	pro_sup_r	wrist_flex_r	wrist_dev_r	arm_flex_l	arm_add_l	arm_rot_l	elbow_flex_l	pro_sup_l	wrist_flex_l	wrist_dev_l
      0.00500000	      1.09832857	     -1.01191231	    -89.33005821	      1.22466713	      0.94161505	      0.32910454	     -3.83559217	     -6.03754424	    -19.75670958	      6.55950543	      0.11448497	      3.82598244	      6.44185347	      0.00000000	     -3.36541049	     -2.54091044	    -21.97476745	      8.65901622	      0.15112834	      6.19680116	     12.24927352	      0.00000000	      0.71995553	     -0.29825489	     -1.80984592	     43.17937211	    -15.94082373	     43.17937211	     75.83501341	     44.61612493	      0.00000000	      0.00000000	     43.17937211	    -15.94082373	     43.17937211	     75.83501341	     44.61612493	      0.00000000	      0.00000000
      0.01000000	      1.11980278	     -0.99519573	    -89.32779703	      1.22472090	      0.94157740	      0.32904694	     -3.79101324	     -6.08424808	    -19.83117799	      6.61147473	      0.11539200	      3.86129541	      6.55459890	      0.00000000	     -3.33022564	     -2.52277787	    -22.03760571	      8.68156785	      0.15152194	      6.14564571	     12.37745983	      0.00000000	      0.73066996	     -0.40431842	     -2.02498171	     43.45795598	    -15.74093465	     43.45795598	     75.58249706	     44.81751936	      0.00000000	      0.00000000	     43.45795598	    -15.74093465	     43.45795598	     75.58249706	     44.81751936	      0.00000000	      0.00000000
      0.01500000	      1.09106804	     -0.99827941	    -89.32412852	      1.22469275	      0.94158146	      0.32891557	     -3.77526232	     -6.05557391	    -19.86353180	      6.63058553	      0.11572555	      3.84468486	      6.58121516	      0.00000000	     -3.29939423	     -2.57746688	    -22.09962715	      8.74421434	      0.15261533	      6.18664644	     12.48558801	      0.00000000	      0.71838758	     -0.38787975	     -2.02825790	     43.49899799	    -15.71191422	     43.49899799	     75.54729141	     44.83562653	      0.00000000	      0.00000000	     43.49899799	    -15.71191422	     43.49899799	     75.54729141	     44.83562653	      0.00000000	      0.00000000
      0.02000000	      1.11673961	     -1.00766764	    -89.33001616	      1.22468363	      0.94161270	      0.32875169	     -3.77855284	     -6.08088592	    -19.82273572	      6.62148355	      0.11556669	      3.85038560	      6.54150857	      0.00000000	     -3.33164863	     -2.52358144	    -22.02110681	      8.66024434	      0.15114978	      6.11599309	     12.34030429	      0.00000000	      0.67697037	     -0.42156495	     -2.02781676	     43.52997161	    -15.69048269	     43.52997161	     75.52213376	     44.84858843	      0.00000000	      0.00000000	     43.52997161	    -15.69048269	     43.52997161	     75.52213376	     44.84858843	      0.00000000	      0.00000000
      0.02500000	      1.10461613	     -0.99471158	    -89.32991958	      1.22465855	      0.94159999	      0.32861054	     -3.74971264	     -6.06639126	    -19.83776905	      6.62604286	      0.11564626	      3.82607011	      6.54269706	      0.00000000	     -3.28307099	     -2.55927241	    -22.09304475	      8.72233600	      0.15223348	      6.14659490	     12.47121303	      0.00000000	      0.66848475	     -0.39727082	     -1.96122177	     43.58334180	    -15.65338247	     43.58334180	     75.47834742	     44.86963663	      0.00000000	      0.00000000	     43.58334180	    -15.65338247	     43.58334180	     75.47834742	     44.86963663	      0.00000000	      0.00000000
      0.03000000	      1.10400326	     -1.00525931	    -89.32169283	      1.22468073	      0.94162480	      0.32840696	     -3.74697856	     -6.06729763	    -19.83468353	      6.63342362	      0.11577508	      3.81680950	      6.53677057	      0.00000000	     -3.28507524	     -2.55005181	    -22.04858786	      8.70434186	      0.15191942	      6.12594805	     12.40682489	      0.00000000	      0.61994621	     -0.38159540	     -1.95647594	     43.62982929	    -15.62171828	     43.62982929	     75.44212827	     44.88676732	      0.00000000	      0.00000000	     43.62982929	    -15.62171828	     43.62982929	     75.44212827	     44.88676732	      0.00000000	      0.00000000
      0.03500000	      1.12560733	     -1.02124721	    -89.32774937	      1.22464482	      0.94164811	      0.32821884	     -3.74680332	     -6.09108140	    -19.82579378	      6.64044155	      0.11589757	      3.82499889	      6.53187047	      0.00000000	     -3.30133297	     -2.51947616	    -22.02496998	      8.67243925	      0.15136262	      6.10186484	     12.36980502	      0.00000000	      0.57862148	     -0.41186188	     -1.92993616	     43.67165955	    -15.59367759	     43.67165955	     75.41095462	     44.90065447	      0.00000000	      0.00000000	     43.67165955	    -15.59367759	     43.67165955	     75.41095462	     44.90065447	      0.00000000	      0.00000000
      0.04000000	      1.15677953	     -1.02010612	    -89.32129143	      1.22462255	      0.94165126	      0.32804445	     -3.70187635	     -6.14820259	    -19.94509849	      6.71608116	      0.11721773	      3.84001445	      6.68923286	      0.00000000	     -3.28030682	     -2.48963172	    -22.02991427	      8.68904141	      0.15165238	      6.05843850	     12.33689966	      0.00000000	      0.54528063	     -0.52661926	     -2.00669245	     43.74527900	    -15.54604272	     43.74527900	     75.36164406	     44.91917535	      0.00000000	      0.00000000	     43.74527900	    -15.54604272	     43.74527900	     75.36164406	     44.91917535	      0.00000000	      0.00000000
      0.04500000	      1.12430303	     -1.00324174	    -89.31556370	      1.22466029	      0.94160166	      0.32784250	     -3.64539108	     -6.12664868	    -19.97244038	      6.77271062	      0.11820610	      3.87558950	      6.69964459	      0.00000000	     -3.19223165	     -2.56769198	    -22.19566454	      8.81869650	      0.15391529	      6.10890827	     12.62969064	      0.00000000	      0.53618959	     -0.45898219	     -2.04005922	     43.81411064	    -15.50124984	     43.81411064	     75.31385543	     44.93926786	      0.00000000	      0.00000000	     43.81411064	    -15.50124984	     43.81411064	     75.31385543	     44.93926786	      0.00000000	      0.00000000
      0.05000000	      1.12565694	     -1.02022241	    -89.31976196	      1.22461996	      0.94166888	      0.32764566	     -3.69982274	     -6.09286850	    -19.84321135	      6.65028832	      0.11606943	      3.80893010	      6.54493451	      0.00000000	     -3.21219292	     -2.55884800	    -22.15583090	      8.78338533	      0.15329899	      6.08370790	     12.57609953	      0.00000000	      0.47659336	     -0.46795898	     -1.95533141	     43.84025929	    -15.48522122	     43.84025929	     75.29836468	     44.94535839	      0.00000000	      0.00000000	     43.84025929	    -15.48522122	     43.84025929	     75.29836468	     44.94535839	      0.00000000	      0.00000000
